<mxfile host="app.diagrams.net" modified="2023-11-05T17:08:02.945Z" agent="Mozilla/5.0 (Windows NT 10.0; Win64; x64) AppleWebKit/537.36 (KHTML, like Gecko) Chrome/118.0.0.0 Safari/537.36" etag="EHKDRmBAS7Pt_Lr5wu47" version="22.0.8" type="device">
  <diagram id="R2lEEEUBdFMjLlhIrx00" name="Page-1">
    <mxGraphModel dx="2205" dy="785" grid="1" gridSize="10" guides="1" tooltips="1" connect="1" arrows="1" fold="1" page="1" pageScale="1" pageWidth="850" pageHeight="1100" math="0" shadow="0" extFonts="Permanent Marker^https://fonts.googleapis.com/css?family=Permanent+Marker">
      <root>
        <mxCell id="0" />
        <mxCell id="1" parent="0" />
        <mxCell id="2npRG_92FzPS6ZcTc9LZ-109" value="&lt;font style=&quot;font-size: 18px;&quot;&gt;has&lt;/font&gt;" style="html=1;whiteSpace=wrap;aspect=fixed;shape=isoRectangle;" vertex="1" parent="1">
          <mxGeometry x="43.33" y="230" width="150" height="90" as="geometry" />
        </mxCell>
        <mxCell id="2npRG_92FzPS6ZcTc9LZ-105" value="&lt;font style=&quot;font-size: 18px;&quot;&gt;message&lt;/font&gt;" style="ellipse;whiteSpace=wrap;html=1;" vertex="1" parent="1">
          <mxGeometry x="710" y="245.20000000000002" width="120" height="93.2" as="geometry" />
        </mxCell>
        <mxCell id="2npRG_92FzPS6ZcTc9LZ-98" value="&lt;font style=&quot;font-size: 18px;&quot;&gt;has&lt;/font&gt;" style="html=1;whiteSpace=wrap;aspect=fixed;shape=isoRectangle;" vertex="1" parent="1">
          <mxGeometry x="366.65999999999997" y="220" width="133.34" height="80" as="geometry" />
        </mxCell>
        <mxCell id="2npRG_92FzPS6ZcTc9LZ-57" value="" style="ellipse;whiteSpace=wrap;html=1;" vertex="1" parent="1">
          <mxGeometry x="480" y="10" width="120" height="85" as="geometry" />
        </mxCell>
        <mxCell id="2npRG_92FzPS6ZcTc9LZ-30" value="&lt;font style=&quot;font-size: 18px;&quot;&gt;has&lt;/font&gt;" style="html=1;whiteSpace=wrap;aspect=fixed;shape=isoRectangle;" vertex="1" parent="1">
          <mxGeometry x="59.99999999999999" y="240" width="116.67" height="70" as="geometry" />
        </mxCell>
        <mxCell id="2npRG_92FzPS6ZcTc9LZ-35" value="&lt;font style=&quot;font-size: 18px;&quot;&gt;&lt;u&gt;user_id&lt;/u&gt;&lt;/font&gt;" style="ellipse;whiteSpace=wrap;html=1;" vertex="1" parent="1">
          <mxGeometry x="190" y="40" width="100" height="70" as="geometry" />
        </mxCell>
        <mxCell id="2npRG_92FzPS6ZcTc9LZ-36" value="&lt;font style=&quot;font-size: 18px;&quot;&gt;User&lt;/font&gt;" style="rounded=0;whiteSpace=wrap;html=1;" vertex="1" parent="1">
          <mxGeometry x="116.66" y="150" width="120" height="60" as="geometry" />
        </mxCell>
        <mxCell id="2npRG_92FzPS6ZcTc9LZ-38" value="" style="endArrow=none;html=1;rounded=0;exitX=0.75;exitY=0;exitDx=0;exitDy=0;entryX=0.5;entryY=1;entryDx=0;entryDy=0;" edge="1" parent="1" source="2npRG_92FzPS6ZcTc9LZ-36" target="2npRG_92FzPS6ZcTc9LZ-35">
          <mxGeometry width="50" height="50" relative="1" as="geometry">
            <mxPoint x="240" y="200" as="sourcePoint" />
            <mxPoint x="290" y="150" as="targetPoint" />
          </mxGeometry>
        </mxCell>
        <mxCell id="2npRG_92FzPS6ZcTc9LZ-39" value="&lt;font style=&quot;font-size: 18px;&quot;&gt;name&lt;/font&gt;" style="ellipse;whiteSpace=wrap;html=1;" vertex="1" parent="1">
          <mxGeometry x="60" y="40" width="100" height="70" as="geometry" />
        </mxCell>
        <mxCell id="2npRG_92FzPS6ZcTc9LZ-41" value="" style="endArrow=none;html=1;rounded=0;entryX=0.5;entryY=1;entryDx=0;entryDy=0;exitX=0.25;exitY=0;exitDx=0;exitDy=0;" edge="1" parent="1" source="2npRG_92FzPS6ZcTc9LZ-36" target="2npRG_92FzPS6ZcTc9LZ-39">
          <mxGeometry width="50" height="50" relative="1" as="geometry">
            <mxPoint x="170" y="110" as="sourcePoint" />
            <mxPoint x="200" y="100" as="targetPoint" />
          </mxGeometry>
        </mxCell>
        <mxCell id="2npRG_92FzPS6ZcTc9LZ-42" value="" style="endArrow=none;html=1;rounded=0;entryX=0;entryY=0.25;entryDx=0;entryDy=0;exitX=1;exitY=0.5;exitDx=0;exitDy=0;" edge="1" parent="1" source="2npRG_92FzPS6ZcTc9LZ-45" target="2npRG_92FzPS6ZcTc9LZ-36">
          <mxGeometry width="50" height="50" relative="1" as="geometry">
            <mxPoint x="50" y="280" as="sourcePoint" />
            <mxPoint x="100" y="230" as="targetPoint" />
          </mxGeometry>
        </mxCell>
        <mxCell id="2npRG_92FzPS6ZcTc9LZ-45" value="&lt;font style=&quot;font-size: 18px;&quot;&gt;email&lt;br&gt;&lt;/font&gt;" style="ellipse;whiteSpace=wrap;html=1;" vertex="1" parent="1">
          <mxGeometry x="-40" y="130" width="100" height="70" as="geometry" />
        </mxCell>
        <mxCell id="2npRG_92FzPS6ZcTc9LZ-46" value="&lt;font style=&quot;font-size: 18px;&quot;&gt;enrolls in&lt;/font&gt;" style="html=1;whiteSpace=wrap;aspect=fixed;shape=isoRectangle;" vertex="1" parent="1">
          <mxGeometry x="300" y="145" width="116.67" height="70" as="geometry" />
        </mxCell>
        <mxCell id="2npRG_92FzPS6ZcTc9LZ-47" value="" style="endArrow=none;html=1;rounded=0;exitX=1;exitY=0.5;exitDx=0;exitDy=0;entryX=0.014;entryY=0.519;entryDx=0;entryDy=0;entryPerimeter=0;" edge="1" parent="1" source="2npRG_92FzPS6ZcTc9LZ-36" target="2npRG_92FzPS6ZcTc9LZ-46">
          <mxGeometry width="50" height="50" relative="1" as="geometry">
            <mxPoint x="320" y="320" as="sourcePoint" />
            <mxPoint x="370" y="270" as="targetPoint" />
          </mxGeometry>
        </mxCell>
        <mxCell id="2npRG_92FzPS6ZcTc9LZ-49" value="&lt;font style=&quot;font-size: 18px;&quot;&gt;Course&lt;br&gt;&lt;/font&gt;" style="rounded=0;whiteSpace=wrap;html=1;" vertex="1" parent="1">
          <mxGeometry x="490" y="150" width="120" height="60" as="geometry" />
        </mxCell>
        <mxCell id="2npRG_92FzPS6ZcTc9LZ-50" value="&lt;font style=&quot;font-size: 18px;&quot;&gt;&lt;u&gt;course_id&lt;/u&gt;&lt;/font&gt;" style="ellipse;whiteSpace=wrap;html=1;" vertex="1" parent="1">
          <mxGeometry x="630" y="50" width="100" height="70" as="geometry" />
        </mxCell>
        <mxCell id="2npRG_92FzPS6ZcTc9LZ-51" value="" style="endArrow=none;html=1;rounded=0;exitX=0.75;exitY=0;exitDx=0;exitDy=0;entryX=0;entryY=1;entryDx=0;entryDy=0;" edge="1" parent="1" target="2npRG_92FzPS6ZcTc9LZ-50" source="2npRG_92FzPS6ZcTc9LZ-49">
          <mxGeometry width="50" height="50" relative="1" as="geometry">
            <mxPoint x="667" y="150" as="sourcePoint" />
            <mxPoint x="750" y="150" as="targetPoint" />
          </mxGeometry>
        </mxCell>
        <mxCell id="2npRG_92FzPS6ZcTc9LZ-52" value="&lt;font style=&quot;font-size: 18px;&quot;&gt;materials&lt;/font&gt;" style="ellipse;whiteSpace=wrap;html=1;" vertex="1" parent="1">
          <mxGeometry x="490" y="17.5" width="100" height="70" as="geometry" />
        </mxCell>
        <mxCell id="2npRG_92FzPS6ZcTc9LZ-53" value="" style="endArrow=none;html=1;rounded=0;exitX=0.5;exitY=0;exitDx=0;exitDy=0;entryX=0.5;entryY=1;entryDx=0;entryDy=0;" edge="1" parent="1" source="2npRG_92FzPS6ZcTc9LZ-49" target="2npRG_92FzPS6ZcTc9LZ-57">
          <mxGeometry width="50" height="50" relative="1" as="geometry">
            <mxPoint x="480" y="330" as="sourcePoint" />
            <mxPoint x="560" y="110" as="targetPoint" />
          </mxGeometry>
        </mxCell>
        <mxCell id="2npRG_92FzPS6ZcTc9LZ-55" value="&lt;font style=&quot;font-size: 18px;&quot;&gt;name&lt;/font&gt;" style="ellipse;whiteSpace=wrap;html=1;" vertex="1" parent="1">
          <mxGeometry x="670" y="145" width="100" height="70" as="geometry" />
        </mxCell>
        <mxCell id="2npRG_92FzPS6ZcTc9LZ-56" value="" style="endArrow=none;html=1;rounded=0;exitX=1;exitY=0.5;exitDx=0;exitDy=0;entryX=0;entryY=0.5;entryDx=0;entryDy=0;" edge="1" parent="1" source="2npRG_92FzPS6ZcTc9LZ-49" target="2npRG_92FzPS6ZcTc9LZ-55">
          <mxGeometry width="50" height="50" relative="1" as="geometry">
            <mxPoint x="640" y="320" as="sourcePoint" />
            <mxPoint x="690" y="270" as="targetPoint" />
          </mxGeometry>
        </mxCell>
        <mxCell id="2npRG_92FzPS6ZcTc9LZ-58" value="" style="endArrow=none;html=1;rounded=0;exitX=1.003;exitY=0.51;exitDx=0;exitDy=0;exitPerimeter=0;entryX=0;entryY=0.5;entryDx=0;entryDy=0;" edge="1" parent="1" source="2npRG_92FzPS6ZcTc9LZ-46" target="2npRG_92FzPS6ZcTc9LZ-49">
          <mxGeometry width="50" height="50" relative="1" as="geometry">
            <mxPoint x="360" y="310" as="sourcePoint" />
            <mxPoint x="410" y="260" as="targetPoint" />
          </mxGeometry>
        </mxCell>
        <mxCell id="2npRG_92FzPS6ZcTc9LZ-59" value="" style="endArrow=none;html=1;rounded=0;entryX=0.5;entryY=1;entryDx=0;entryDy=0;" edge="1" parent="1" target="2npRG_92FzPS6ZcTc9LZ-36">
          <mxGeometry width="50" height="50" relative="1" as="geometry">
            <mxPoint x="150" y="250" as="sourcePoint" />
            <mxPoint x="350" y="260" as="targetPoint" />
          </mxGeometry>
        </mxCell>
        <mxCell id="2npRG_92FzPS6ZcTc9LZ-60" value="&lt;font style=&quot;font-size: 18px;&quot;&gt;activity&lt;/font&gt;" style="rounded=0;whiteSpace=wrap;html=1;" vertex="1" parent="1">
          <mxGeometry x="-1.6599999999999966" y="341.4" width="120" height="60" as="geometry" />
        </mxCell>
        <mxCell id="2npRG_92FzPS6ZcTc9LZ-61" value="" style="endArrow=none;html=1;rounded=0;exitX=0.5;exitY=0;exitDx=0;exitDy=0;" edge="1" parent="1" source="2npRG_92FzPS6ZcTc9LZ-60">
          <mxGeometry width="50" height="50" relative="1" as="geometry">
            <mxPoint x="201.68" y="321.4" as="sourcePoint" />
            <mxPoint x="90" y="300" as="targetPoint" />
          </mxGeometry>
        </mxCell>
        <mxCell id="2npRG_92FzPS6ZcTc9LZ-62" value="" style="triangle;whiteSpace=wrap;html=1;rotation=90;" vertex="1" parent="1">
          <mxGeometry x="28.330000000000013" y="441.4" width="60" height="80" as="geometry" />
        </mxCell>
        <mxCell id="2npRG_92FzPS6ZcTc9LZ-63" value="&lt;font style=&quot;font-size: 18px;&quot;&gt;isa&lt;/font&gt;" style="text;html=1;strokeColor=none;fillColor=none;align=center;verticalAlign=middle;whiteSpace=wrap;rounded=0;" vertex="1" parent="1">
          <mxGeometry x="28.680000000000007" y="458.4" width="60" height="30" as="geometry" />
        </mxCell>
        <mxCell id="2npRG_92FzPS6ZcTc9LZ-64" value="" style="endArrow=none;html=1;rounded=0;exitX=0;exitY=0.5;exitDx=0;exitDy=0;entryX=0.5;entryY=1;entryDx=0;entryDy=0;" edge="1" parent="1" source="2npRG_92FzPS6ZcTc9LZ-62" target="2npRG_92FzPS6ZcTc9LZ-60">
          <mxGeometry width="50" height="50" relative="1" as="geometry">
            <mxPoint x="-128.32" y="511.4" as="sourcePoint" />
            <mxPoint x="-78.32" y="461.4" as="targetPoint" />
          </mxGeometry>
        </mxCell>
        <mxCell id="2npRG_92FzPS6ZcTc9LZ-65" value="&lt;font style=&quot;font-size: 18px;&quot;&gt;login&lt;/font&gt;" style="rounded=0;whiteSpace=wrap;html=1;" vertex="1" parent="1">
          <mxGeometry x="-100" y="531.4" width="100" height="50" as="geometry" />
        </mxCell>
        <mxCell id="2npRG_92FzPS6ZcTc9LZ-66" value="&lt;font style=&quot;font-size: 18px;&quot;&gt;logout&lt;/font&gt;" style="rounded=0;whiteSpace=wrap;html=1;" vertex="1" parent="1">
          <mxGeometry x="8.329999999999998" y="561.4" width="100" height="50" as="geometry" />
        </mxCell>
        <mxCell id="2npRG_92FzPS6ZcTc9LZ-67" value="&lt;span style=&quot;font-size: 18px;&quot;&gt;other&lt;/span&gt;" style="rounded=0;whiteSpace=wrap;html=1;" vertex="1" parent="1">
          <mxGeometry x="116.67000000000002" y="531.4" width="100" height="50" as="geometry" />
        </mxCell>
        <mxCell id="2npRG_92FzPS6ZcTc9LZ-68" value="&lt;font style=&quot;font-size: 18px;&quot;&gt;disjoint&lt;/font&gt;" style="text;html=1;strokeColor=none;fillColor=none;align=center;verticalAlign=middle;whiteSpace=wrap;rounded=0;" vertex="1" parent="1">
          <mxGeometry x="91.68" y="451.4" width="60" height="30" as="geometry" />
        </mxCell>
        <mxCell id="2npRG_92FzPS6ZcTc9LZ-69" value="" style="endArrow=none;html=1;rounded=0;entryX=0.5;entryY=1;entryDx=0;entryDy=0;exitX=0.75;exitY=0;exitDx=0;exitDy=0;" edge="1" parent="1" source="2npRG_92FzPS6ZcTc9LZ-65" target="2npRG_92FzPS6ZcTc9LZ-62">
          <mxGeometry width="50" height="50" relative="1" as="geometry">
            <mxPoint x="-38.31999999999999" y="511.4" as="sourcePoint" />
            <mxPoint x="11.680000000000007" y="461.4" as="targetPoint" />
          </mxGeometry>
        </mxCell>
        <mxCell id="2npRG_92FzPS6ZcTc9LZ-70" value="" style="endArrow=none;html=1;rounded=0;entryX=1;entryY=0.5;entryDx=0;entryDy=0;exitX=0.5;exitY=0;exitDx=0;exitDy=0;" edge="1" parent="1" source="2npRG_92FzPS6ZcTc9LZ-66" target="2npRG_92FzPS6ZcTc9LZ-62">
          <mxGeometry width="50" height="50" relative="1" as="geometry">
            <mxPoint x="-148.32" y="501.4" as="sourcePoint" />
            <mxPoint x="-98.32" y="451.4" as="targetPoint" />
          </mxGeometry>
        </mxCell>
        <mxCell id="2npRG_92FzPS6ZcTc9LZ-71" value="" style="endArrow=none;html=1;rounded=0;entryX=0.5;entryY=0;entryDx=0;entryDy=0;exitX=0.25;exitY=0;exitDx=0;exitDy=0;" edge="1" parent="1" source="2npRG_92FzPS6ZcTc9LZ-67" target="2npRG_92FzPS6ZcTc9LZ-62">
          <mxGeometry width="50" height="50" relative="1" as="geometry">
            <mxPoint x="-78.32" y="481.4" as="sourcePoint" />
            <mxPoint x="-28.319999999999993" y="431.4" as="targetPoint" />
          </mxGeometry>
        </mxCell>
        <mxCell id="2npRG_92FzPS6ZcTc9LZ-72" value="&lt;font style=&quot;font-size: 18px;&quot;&gt;has&lt;/font&gt;" style="html=1;whiteSpace=wrap;aspect=fixed;shape=isoRectangle;" vertex="1" parent="1">
          <mxGeometry x="530" y="250" width="116.67" height="70" as="geometry" />
        </mxCell>
        <mxCell id="2npRG_92FzPS6ZcTc9LZ-73" value="" style="endArrow=classic;html=1;rounded=0;exitX=0.496;exitY=0.024;exitDx=0;exitDy=0;exitPerimeter=0;entryX=0.5;entryY=1;entryDx=0;entryDy=0;" edge="1" parent="1" source="2npRG_92FzPS6ZcTc9LZ-72" target="2npRG_92FzPS6ZcTc9LZ-49">
          <mxGeometry width="50" height="50" relative="1" as="geometry">
            <mxPoint x="380" y="330" as="sourcePoint" />
            <mxPoint x="430" y="280" as="targetPoint" />
          </mxGeometry>
        </mxCell>
        <mxCell id="2npRG_92FzPS6ZcTc9LZ-74" value="&lt;font style=&quot;font-size: 18px;&quot;&gt;class&lt;/font&gt;" style="rounded=0;whiteSpace=wrap;html=1;" vertex="1" parent="1">
          <mxGeometry x="578.34" y="338.4" width="120" height="60" as="geometry" />
        </mxCell>
        <mxCell id="2npRG_92FzPS6ZcTc9LZ-75" value="" style="triangle;whiteSpace=wrap;html=1;rotation=90;" vertex="1" parent="1">
          <mxGeometry x="546.6500000000001" y="424.9" width="60" height="80" as="geometry" />
        </mxCell>
        <mxCell id="2npRG_92FzPS6ZcTc9LZ-76" value="&lt;font style=&quot;font-size: 18px;&quot;&gt;isa&lt;/font&gt;" style="text;html=1;strokeColor=none;fillColor=none;align=center;verticalAlign=middle;whiteSpace=wrap;rounded=0;" vertex="1" parent="1">
          <mxGeometry x="547" y="441.9" width="60" height="30" as="geometry" />
        </mxCell>
        <mxCell id="2npRG_92FzPS6ZcTc9LZ-77" value="" style="endArrow=none;html=1;rounded=0;exitX=0;exitY=0.5;exitDx=0;exitDy=0;entryX=0.25;entryY=1;entryDx=0;entryDy=0;" edge="1" parent="1" source="2npRG_92FzPS6ZcTc9LZ-75" target="2npRG_92FzPS6ZcTc9LZ-74">
          <mxGeometry width="50" height="50" relative="1" as="geometry">
            <mxPoint x="451.67999999999995" y="508.4" as="sourcePoint" />
            <mxPoint x="638" y="398" as="targetPoint" />
          </mxGeometry>
        </mxCell>
        <mxCell id="2npRG_92FzPS6ZcTc9LZ-78" value="&lt;font style=&quot;font-size: 18px;&quot;&gt;tutorial&lt;/font&gt;" style="rounded=0;whiteSpace=wrap;html=1;" vertex="1" parent="1">
          <mxGeometry x="418.32" y="514.9" width="100" height="50" as="geometry" />
        </mxCell>
        <mxCell id="2npRG_92FzPS6ZcTc9LZ-79" value="&lt;font style=&quot;font-size: 18px;&quot;&gt;lecture&lt;/font&gt;" style="rounded=0;whiteSpace=wrap;html=1;" vertex="1" parent="1">
          <mxGeometry x="530" y="514.9" width="100" height="50" as="geometry" />
        </mxCell>
        <mxCell id="2npRG_92FzPS6ZcTc9LZ-81" value="&lt;font style=&quot;font-size: 18px;&quot;&gt;disjoint&lt;/font&gt;" style="text;html=1;strokeColor=none;fillColor=none;align=center;verticalAlign=middle;whiteSpace=wrap;rounded=0;" vertex="1" parent="1">
          <mxGeometry x="610" y="434.9" width="60" height="30" as="geometry" />
        </mxCell>
        <mxCell id="2npRG_92FzPS6ZcTc9LZ-82" value="" style="endArrow=none;html=1;rounded=0;entryX=0.5;entryY=1;entryDx=0;entryDy=0;exitX=0.75;exitY=0;exitDx=0;exitDy=0;" edge="1" parent="1" source="2npRG_92FzPS6ZcTc9LZ-78" target="2npRG_92FzPS6ZcTc9LZ-75">
          <mxGeometry width="50" height="50" relative="1" as="geometry">
            <mxPoint x="479.99999999999994" y="494.9" as="sourcePoint" />
            <mxPoint x="530" y="444.9" as="targetPoint" />
          </mxGeometry>
        </mxCell>
        <mxCell id="2npRG_92FzPS6ZcTc9LZ-83" value="" style="endArrow=none;html=1;rounded=0;entryX=1;entryY=0.5;entryDx=0;entryDy=0;exitX=0.5;exitY=0;exitDx=0;exitDy=0;" edge="1" parent="1" source="2npRG_92FzPS6ZcTc9LZ-79" target="2npRG_92FzPS6ZcTc9LZ-75">
          <mxGeometry width="50" height="50" relative="1" as="geometry">
            <mxPoint x="369.99999999999994" y="484.9" as="sourcePoint" />
            <mxPoint x="419.99999999999994" y="434.9" as="targetPoint" />
          </mxGeometry>
        </mxCell>
        <mxCell id="2npRG_92FzPS6ZcTc9LZ-85" value="&lt;span style=&quot;font-size: 18px;&quot;&gt;assignment&lt;br&gt;&lt;/span&gt;" style="rounded=0;whiteSpace=wrap;html=1;" vertex="1" parent="1">
          <mxGeometry x="300" y="311.4" width="120" height="60" as="geometry" />
        </mxCell>
        <mxCell id="2npRG_92FzPS6ZcTc9LZ-86" value="&lt;font style=&quot;font-size: 18px;&quot;&gt;assignment_id&lt;/font&gt;" style="ellipse;whiteSpace=wrap;html=1;" vertex="1" parent="1">
          <mxGeometry x="190" y="400" width="135" height="70" as="geometry" />
        </mxCell>
        <mxCell id="2npRG_92FzPS6ZcTc9LZ-88" value="&lt;font style=&quot;font-size: 18px;&quot;&gt;deadline&lt;br&gt;&lt;/font&gt;" style="ellipse;whiteSpace=wrap;html=1;" vertex="1" parent="1">
          <mxGeometry x="310" y="461.4" width="100" height="70" as="geometry" />
        </mxCell>
        <mxCell id="2npRG_92FzPS6ZcTc9LZ-89" value="&lt;font style=&quot;font-size: 18px;&quot;&gt;link&lt;br&gt;&lt;/font&gt;" style="ellipse;whiteSpace=wrap;html=1;" vertex="1" parent="1">
          <mxGeometry x="400" y="391.4" width="100" height="70" as="geometry" />
        </mxCell>
        <mxCell id="2npRG_92FzPS6ZcTc9LZ-91" value="" style="endArrow=none;html=1;rounded=0;entryX=0.707;entryY=0.749;entryDx=0;entryDy=0;entryPerimeter=0;exitX=0.5;exitY=0;exitDx=0;exitDy=0;" edge="1" parent="1" source="2npRG_92FzPS6ZcTc9LZ-74" target="2npRG_92FzPS6ZcTc9LZ-72">
          <mxGeometry width="50" height="50" relative="1" as="geometry">
            <mxPoint x="710" y="340" as="sourcePoint" />
            <mxPoint x="760" y="290" as="targetPoint" />
          </mxGeometry>
        </mxCell>
        <mxCell id="2npRG_92FzPS6ZcTc9LZ-92" value="" style="endArrow=none;html=1;rounded=0;entryX=0.5;entryY=0;entryDx=0;entryDy=0;" edge="1" parent="1" source="2npRG_92FzPS6ZcTc9LZ-85" target="2npRG_92FzPS6ZcTc9LZ-88">
          <mxGeometry width="50" height="50" relative="1" as="geometry">
            <mxPoint x="360" y="421.4" as="sourcePoint" />
            <mxPoint x="360" y="442.11067811865473" as="targetPoint" />
          </mxGeometry>
        </mxCell>
        <mxCell id="2npRG_92FzPS6ZcTc9LZ-93" value="" style="endArrow=none;html=1;rounded=0;exitX=0.5;exitY=0;exitDx=0;exitDy=0;entryX=0;entryY=0.75;entryDx=0;entryDy=0;" edge="1" parent="1" source="2npRG_92FzPS6ZcTc9LZ-86" target="2npRG_92FzPS6ZcTc9LZ-85">
          <mxGeometry width="50" height="50" relative="1" as="geometry">
            <mxPoint x="250" y="400" as="sourcePoint" />
            <mxPoint x="300" y="350" as="targetPoint" />
          </mxGeometry>
        </mxCell>
        <mxCell id="2npRG_92FzPS6ZcTc9LZ-94" value="" style="endArrow=none;html=1;rounded=0;entryX=1;entryY=0.75;entryDx=0;entryDy=0;exitX=0.5;exitY=0;exitDx=0;exitDy=0;" edge="1" parent="1" source="2npRG_92FzPS6ZcTc9LZ-89" target="2npRG_92FzPS6ZcTc9LZ-85">
          <mxGeometry width="50" height="50" relative="1" as="geometry">
            <mxPoint x="440" y="380" as="sourcePoint" />
            <mxPoint x="490" y="330" as="targetPoint" />
          </mxGeometry>
        </mxCell>
        <mxCell id="2npRG_92FzPS6ZcTc9LZ-96" value="&lt;font style=&quot;font-size: 18px;&quot;&gt;has&lt;/font&gt;" style="html=1;whiteSpace=wrap;aspect=fixed;shape=isoRectangle;" vertex="1" parent="1">
          <mxGeometry x="374.99" y="225" width="116.67" height="70" as="geometry" />
        </mxCell>
        <mxCell id="2npRG_92FzPS6ZcTc9LZ-97" value="" style="endArrow=none;dashed=1;html=1;rounded=0;" edge="1" parent="1">
          <mxGeometry width="50" height="50" relative="1" as="geometry">
            <mxPoint x="207.5" y="448.4" as="sourcePoint" />
            <mxPoint x="307.5" y="448.4" as="targetPoint" />
          </mxGeometry>
        </mxCell>
        <mxCell id="2npRG_92FzPS6ZcTc9LZ-99" value="" style="endArrow=none;html=1;rounded=0;exitX=0.25;exitY=1;exitDx=0;exitDy=0;entryX=0.807;entryY=0.241;entryDx=0;entryDy=0;entryPerimeter=0;" edge="1" parent="1" source="2npRG_92FzPS6ZcTc9LZ-49" target="2npRG_92FzPS6ZcTc9LZ-96">
          <mxGeometry width="50" height="50" relative="1" as="geometry">
            <mxPoint x="500" y="220" as="sourcePoint" />
            <mxPoint x="530" y="300" as="targetPoint" />
          </mxGeometry>
        </mxCell>
        <mxCell id="2npRG_92FzPS6ZcTc9LZ-100" value="" style="endArrow=none;html=1;rounded=0;exitX=0.5;exitY=0;exitDx=0;exitDy=0;entryX=0.218;entryY=0.752;entryDx=0;entryDy=0;entryPerimeter=0;" edge="1" parent="1" source="2npRG_92FzPS6ZcTc9LZ-85" target="2npRG_92FzPS6ZcTc9LZ-96">
          <mxGeometry width="50" height="50" relative="1" as="geometry">
            <mxPoint x="290" y="280" as="sourcePoint" />
            <mxPoint x="340" y="230" as="targetPoint" />
          </mxGeometry>
        </mxCell>
        <mxCell id="2npRG_92FzPS6ZcTc9LZ-101" value="&lt;font style=&quot;font-size: 18px;&quot;&gt;startTime&lt;/font&gt;" style="ellipse;whiteSpace=wrap;html=1;" vertex="1" parent="1">
          <mxGeometry x="750" y="494.9" width="100" height="70" as="geometry" />
        </mxCell>
        <mxCell id="2npRG_92FzPS6ZcTc9LZ-102" value="&lt;font style=&quot;font-size: 18px;&quot;&gt;endTime&lt;/font&gt;" style="ellipse;whiteSpace=wrap;html=1;" vertex="1" parent="1">
          <mxGeometry x="646.67" y="480" width="100" height="70" as="geometry" />
        </mxCell>
        <mxCell id="2npRG_92FzPS6ZcTc9LZ-103" value="&lt;span style=&quot;font-size: 18px;&quot;&gt;&lt;u&gt;class_id&lt;/u&gt;&lt;/span&gt;" style="ellipse;whiteSpace=wrap;html=1;" vertex="1" parent="1">
          <mxGeometry x="840" y="364.9" width="100" height="70" as="geometry" />
        </mxCell>
        <mxCell id="2npRG_92FzPS6ZcTc9LZ-104" value="&lt;font style=&quot;font-size: 18px;&quot;&gt;message&lt;/font&gt;" style="ellipse;whiteSpace=wrap;html=1;" vertex="1" parent="1">
          <mxGeometry x="720" y="258.4" width="100" height="68.4" as="geometry" />
        </mxCell>
        <mxCell id="2npRG_92FzPS6ZcTc9LZ-106" value="&lt;font style=&quot;font-size: 18px;&quot;&gt;zoomlink&lt;/font&gt;" style="ellipse;whiteSpace=wrap;html=1;" vertex="1" parent="1">
          <mxGeometry x="740" y="401.9" width="100" height="70" as="geometry" />
        </mxCell>
        <mxCell id="2npRG_92FzPS6ZcTc9LZ-107" value="&lt;font style=&quot;font-size: 18px;&quot;&gt;activity_id&lt;/font&gt;" style="ellipse;whiteSpace=wrap;html=1;" vertex="1" parent="1">
          <mxGeometry x="-160" y="336.4" width="135" height="70" as="geometry" />
        </mxCell>
        <mxCell id="2npRG_92FzPS6ZcTc9LZ-108" value="" style="endArrow=none;dashed=1;html=1;rounded=0;" edge="1" parent="1">
          <mxGeometry width="50" height="50" relative="1" as="geometry">
            <mxPoint x="-142.5" y="384.79999999999995" as="sourcePoint" />
            <mxPoint x="-42.5" y="384.79999999999995" as="targetPoint" />
          </mxGeometry>
        </mxCell>
        <mxCell id="2npRG_92FzPS6ZcTc9LZ-110" value="&lt;span style=&quot;font-size: 18px;&quot;&gt;location&lt;/span&gt;" style="ellipse;whiteSpace=wrap;html=1;" vertex="1" parent="1">
          <mxGeometry x="850" y="284.9" width="100" height="70" as="geometry" />
        </mxCell>
        <mxCell id="2npRG_92FzPS6ZcTc9LZ-111" value="" style="endArrow=none;html=1;rounded=0;entryX=0;entryY=1;entryDx=0;entryDy=0;exitX=1;exitY=0;exitDx=0;exitDy=0;" edge="1" parent="1" source="2npRG_92FzPS6ZcTc9LZ-74" target="2npRG_92FzPS6ZcTc9LZ-105">
          <mxGeometry width="50" height="50" relative="1" as="geometry">
            <mxPoint x="700" y="350" as="sourcePoint" />
            <mxPoint x="750" y="300" as="targetPoint" />
          </mxGeometry>
        </mxCell>
        <mxCell id="2npRG_92FzPS6ZcTc9LZ-112" value="" style="endArrow=none;html=1;rounded=0;exitX=1;exitY=0.25;exitDx=0;exitDy=0;entryX=0;entryY=1;entryDx=0;entryDy=0;" edge="1" parent="1" source="2npRG_92FzPS6ZcTc9LZ-74" target="2npRG_92FzPS6ZcTc9LZ-110">
          <mxGeometry width="50" height="50" relative="1" as="geometry">
            <mxPoint x="740" y="420" as="sourcePoint" />
            <mxPoint x="790" y="370" as="targetPoint" />
          </mxGeometry>
        </mxCell>
        <mxCell id="2npRG_92FzPS6ZcTc9LZ-113" value="" style="endArrow=none;html=1;rounded=0;exitX=1;exitY=0.5;exitDx=0;exitDy=0;entryX=0;entryY=0.5;entryDx=0;entryDy=0;" edge="1" parent="1" source="2npRG_92FzPS6ZcTc9LZ-74" target="2npRG_92FzPS6ZcTc9LZ-103">
          <mxGeometry width="50" height="50" relative="1" as="geometry">
            <mxPoint x="720" y="430" as="sourcePoint" />
            <mxPoint x="770" y="380" as="targetPoint" />
          </mxGeometry>
        </mxCell>
        <mxCell id="2npRG_92FzPS6ZcTc9LZ-114" value="" style="endArrow=none;html=1;rounded=0;exitX=1;exitY=0.75;exitDx=0;exitDy=0;entryX=0;entryY=0;entryDx=0;entryDy=0;" edge="1" parent="1" source="2npRG_92FzPS6ZcTc9LZ-74" target="2npRG_92FzPS6ZcTc9LZ-106">
          <mxGeometry width="50" height="50" relative="1" as="geometry">
            <mxPoint x="700" y="460" as="sourcePoint" />
            <mxPoint x="750" y="410" as="targetPoint" />
          </mxGeometry>
        </mxCell>
        <mxCell id="2npRG_92FzPS6ZcTc9LZ-115" value="" style="endArrow=none;html=1;rounded=0;exitX=1;exitY=1;exitDx=0;exitDy=0;entryX=0;entryY=0;entryDx=0;entryDy=0;" edge="1" parent="1" source="2npRG_92FzPS6ZcTc9LZ-74" target="2npRG_92FzPS6ZcTc9LZ-101">
          <mxGeometry width="50" height="50" relative="1" as="geometry">
            <mxPoint x="940" y="510" as="sourcePoint" />
            <mxPoint x="990" y="460" as="targetPoint" />
          </mxGeometry>
        </mxCell>
        <mxCell id="2npRG_92FzPS6ZcTc9LZ-116" value="" style="endArrow=none;html=1;rounded=0;exitX=0.75;exitY=1;exitDx=0;exitDy=0;entryX=0.5;entryY=0;entryDx=0;entryDy=0;" edge="1" parent="1" source="2npRG_92FzPS6ZcTc9LZ-74" target="2npRG_92FzPS6ZcTc9LZ-102">
          <mxGeometry width="50" height="50" relative="1" as="geometry">
            <mxPoint x="960" y="530" as="sourcePoint" />
            <mxPoint x="1010" y="480" as="targetPoint" />
          </mxGeometry>
        </mxCell>
        <mxCell id="2npRG_92FzPS6ZcTc9LZ-117" value="" style="endArrow=none;html=1;rounded=0;exitX=1;exitY=0.5;exitDx=0;exitDy=0;entryX=0;entryY=0.5;entryDx=0;entryDy=0;" edge="1" parent="1" source="2npRG_92FzPS6ZcTc9LZ-107" target="2npRG_92FzPS6ZcTc9LZ-60">
          <mxGeometry width="50" height="50" relative="1" as="geometry">
            <mxPoint x="-170" y="300" as="sourcePoint" />
            <mxPoint x="-120" y="250" as="targetPoint" />
          </mxGeometry>
        </mxCell>
      </root>
    </mxGraphModel>
  </diagram>
</mxfile>
